# This file uses centimeters as units for non-parametric coordinates.

mtllib Landscape.mtl
g default
v -34.727547 5.195682 34.727547
v -27.782038 5.195642 34.727547
v -20.836529 5.149783 34.727547
v -13.891018 4.807416 34.727547
v -6.945509 3.629104 34.727547
v 0.000000 2.148334 34.727547
v 6.945511 1.380032 34.727547
v 13.891018 0.464955 34.727547
v 20.836529 0.015116 34.727547
v 27.782040 -0.198151 34.727547
v 34.727547 -0.152241 34.727547
v -34.727547 5.195642 27.782038
v -27.782038 5.102385 27.782038
v -20.836529 4.740754 27.782038
v -13.891018 4.102605 27.782038
v -6.945509 2.841357 27.782038
v 0.000000 1.559311 27.782038
v 6.945511 1.077235 27.782038
v 13.891018 0.353869 27.782038
v 20.836529 -0.100663 27.782038
v 27.782040 0.782864 27.782038
v 34.727547 1.623174 27.782038
v -34.727547 5.151582 20.836529
v -27.782038 4.742221 20.836529
v -20.836529 4.021366 20.836529
v -13.891018 2.960754 20.836529
v -6.945509 1.595577 20.836529
v 0.000000 0.802870 20.836529
v 6.945511 0.631483 20.836529
v 13.891018 0.202206 20.836529
v 20.836529 0.607377 20.836529
v 27.782040 2.759774 20.836529
v 34.727547 3.425017 20.836529
v -34.727547 4.894100 13.891018
v -27.782038 4.179846 13.891018
v -20.836529 3.044929 13.891018
v -13.891018 1.610441 13.891018
v -6.945509 0.374176 13.891018
v 0.000000 0.130396 13.891018
v 6.945511 0.130780 13.891018
v 13.891018 -0.033266 13.891018
v 20.836529 0.888985 13.891018
v 27.782040 2.813575 13.891018
v 34.727547 3.381337 13.891018
v -34.727547 3.793187 6.945509
v -27.782038 3.000340 6.945509
v -20.836529 1.673280 6.945509
v -13.891018 0.377562 6.945509
v -6.945509 -0.031649 6.945509
v 0.000000 -0.058280 6.945509
v 6.945511 -0.056679 6.945509
v 13.891018 -0.139058 6.945509
v 20.836529 0.259254 6.945509
v 27.782040 2.223474 6.945509
v 34.727547 3.134252 6.945509
v -34.727547 2.017396 0.000000
v -27.782038 1.403895 -0.000000
v -20.836529 0.619734 0.000000
v -13.891018 0.070300 0.000000
v -6.945509 -0.059270 0.000000
v 0.000000 -0.103099 0.000000
v 6.945511 -0.161650 0.000000
v 13.891018 -0.186397 0.000000
v 20.836529 -0.516015 0.000000
v 27.782040 -0.025309 0.000000
v 34.727547 0.612121 0.000000
v -34.727547 1.285647 -6.945510
v -27.782038 0.714202 -6.945508
v -20.836529 0.304162 -6.945510
v -13.891018 -0.009146 -6.945511
v -6.945509 -0.097428 -6.945511
v 0.000000 -0.160665 -6.945511
v 6.945511 -0.175028 -6.945511
v 13.891018 -0.227320 -6.945511
v 20.836529 -1.011538 -6.945511
v 27.782040 -1.199131 -6.945511
v 34.727547 -1.221191 -6.945511
v -34.727547 0.379835 -13.891022
v -27.782038 0.244710 -13.891020
v -20.836529 0.024227 -13.891018
v -13.891018 -0.126376 -13.891018
v -6.945509 -0.139789 -13.891018
v 0.000000 -0.166743 -13.891018
v 6.945511 -0.224541 -13.891018
v 13.891018 -0.726129 -13.891018
v 20.836529 -1.391430 -13.891018
v 27.782040 -1.573628 -13.891018
v 34.727547 -1.640687 -13.891018
v -34.727547 -1.511483 -20.836527
v -27.782038 -1.139442 -20.836525
v -20.836529 -0.400693 -20.836529
v -13.891018 -0.280635 -20.836529
v -6.945508 -0.239264 -20.836529
v 0.000000 -0.471001 -20.836529
v 6.945511 -0.861090 -20.836529
v 13.891018 -1.391377 -20.836529
v 20.836529 -1.682415 -20.836529
v 27.782040 -1.752709 -20.836529
v 34.727547 -1.759871 -20.836529
v -34.727547 -2.000718 -27.782040
v -27.782038 -1.922833 -27.782040
v -20.836525 -1.242477 -27.782040
v -13.891020 -0.390556 -27.782040
v -6.945507 -0.378683 -27.782040
v -0.000000 -0.623926 -27.782040
v 6.945511 -1.015831 -27.782040
v 13.891018 -1.578038 -27.782040
v 20.836529 -1.755594 -27.782040
v 27.782040 -1.757089 -27.782040
v 34.727547 -1.749810 -27.782040
v -34.727547 -2.002218 -34.727547
v -27.782038 -2.000744 -34.727547
v -20.836527 -1.584063 -34.727547
v -13.891022 -0.359612 -34.727547
v -6.945510 -0.312972 -34.727547
v 0.000000 -0.642034 -34.727547
v 6.945511 -1.075817 -34.727547
v 13.891018 -1.611428 -34.727547
v 20.836529 -1.761551 -34.727547
v 27.782040 -1.749834 -34.727547
v 34.727547 -1.745933 -34.727547
vt 0.000000 0.000000
vt 0.100000 0.000000
vt 0.200000 0.000000
vt 0.300000 0.000000
vt 0.400000 0.000000
vt 0.500000 0.000000
vt 0.600000 0.000000
vt 0.700000 0.000000
vt 0.800000 0.000000
vt 0.900000 0.000000
vt 1.000000 0.000000
vt 0.000000 0.100000
vt 0.100000 0.100000
vt 0.200000 0.100000
vt 0.300000 0.100000
vt 0.400000 0.100000
vt 0.500000 0.100000
vt 0.600000 0.100000
vt 0.700000 0.100000
vt 0.800000 0.100000
vt 0.900000 0.100000
vt 1.000000 0.100000
vt 0.000000 0.200000
vt 0.100000 0.200000
vt 0.200000 0.200000
vt 0.300000 0.200000
vt 0.400000 0.200000
vt 0.500000 0.200000
vt 0.600000 0.200000
vt 0.700000 0.200000
vt 0.800000 0.200000
vt 0.900000 0.200000
vt 1.000000 0.200000
vt 0.000000 0.300000
vt 0.100000 0.300000
vt 0.200000 0.300000
vt 0.300000 0.300000
vt 0.400000 0.300000
vt 0.500000 0.300000
vt 0.600000 0.300000
vt 0.700000 0.300000
vt 0.800000 0.300000
vt 0.900000 0.300000
vt 1.000000 0.300000
vt 0.000000 0.400000
vt 0.100000 0.400000
vt 0.200000 0.400000
vt 0.300000 0.400000
vt 0.400000 0.400000
vt 0.500000 0.400000
vt 0.600000 0.400000
vt 0.700000 0.400000
vt 0.800000 0.400000
vt 0.900000 0.400000
vt 1.000000 0.400000
vt 0.000000 0.500000
vt 0.100000 0.500000
vt 0.200000 0.500000
vt 0.300000 0.500000
vt 0.400000 0.500000
vt 0.500000 0.500000
vt 0.600000 0.500000
vt 0.700000 0.500000
vt 0.800000 0.500000
vt 0.900000 0.500000
vt 1.000000 0.500000
vt 0.000000 0.600000
vt 0.100000 0.600000
vt 0.200000 0.600000
vt 0.300000 0.600000
vt 0.400000 0.600000
vt 0.500000 0.600000
vt 0.600000 0.600000
vt 0.700000 0.600000
vt 0.800000 0.600000
vt 0.900000 0.600000
vt 1.000000 0.600000
vt 0.000000 0.700000
vt 0.100000 0.700000
vt 0.200000 0.700000
vt 0.300000 0.700000
vt 0.400000 0.700000
vt 0.500000 0.700000
vt 0.600000 0.700000
vt 0.700000 0.700000
vt 0.800000 0.700000
vt 0.900000 0.700000
vt 1.000000 0.700000
vt 0.000000 0.800000
vt 0.100000 0.800000
vt 0.200000 0.800000
vt 0.300000 0.800000
vt 0.400000 0.800000
vt 0.500000 0.800000
vt 0.600000 0.800000
vt 0.700000 0.800000
vt 0.800000 0.800000
vt 0.900000 0.800000
vt 1.000000 0.800000
vt 0.000000 0.900000
vt 0.100000 0.900000
vt 0.200000 0.900000
vt 0.300000 0.900000
vt 0.400000 0.900000
vt 0.500000 0.900000
vt 0.600000 0.900000
vt 0.700000 0.900000
vt 0.800000 0.900000
vt 0.900000 0.900000
vt 1.000000 0.900000
vt 0.000000 1.000000
vt 0.100000 1.000000
vt 0.200000 1.000000
vt 0.300000 1.000000
vt 0.400000 1.000000
vt 0.500000 1.000000
vt 0.600000 1.000000
vt 0.700000 1.000000
vt 0.800000 1.000000
vt 0.900000 1.000000
vt 1.000000 1.000000
vn 0.006716 0.999955 -0.006716
vn 0.018018 0.999608 -0.021429
vn 0.037470 0.998599 -0.037353
vn 0.021441 0.999610 -0.017901
vn 0.049793 0.997075 -0.057979
vn 0.074527 0.993887 -0.081450
vn 0.121299 0.988285 -0.092623
vn 0.136980 0.983141 -0.121118
vn 0.182967 0.977912 -0.101054
vn 0.174298 0.976382 -0.127667
vn 0.142952 0.986434 -0.080696
vn 0.119829 0.988001 -0.097439
vn 0.103265 0.993554 -0.046752
vn 0.084062 0.994907 -0.055615
vn 0.091148 0.995572 -0.022968
vn 0.067245 0.997661 -0.012261
vn 0.008453 0.999701 0.022951
vn -0.049089 0.996383 0.069369
vn -0.055477 0.990074 0.129138
vn -0.107992 0.978174 0.177519
vn -0.062456 0.978960 0.194258
vn -0.083907 0.969846 0.228818
vn 0.081629 0.994291 -0.068723
vn 0.058361 0.997328 -0.043930
vn 0.126299 0.984641 -0.120542
vn 0.165230 0.973149 -0.160254
vn 0.146817 0.976822 -0.155770
vn 0.070078 0.991250 -0.111861
vn 0.046125 0.996718 -0.066527
vn 0.008384 0.999878 -0.013168
vn -0.149174 0.986671 0.065013
vn -0.172593 0.977717 0.119507
vn -0.097148 0.986275 0.133505
vn 0.122890 0.984225 -0.127280
vn 0.093611 0.989503 -0.110092
vn 0.167182 0.973159 -0.158152
vn 0.166281 0.972928 -0.160507
vn 0.098370 0.988028 -0.118843
vn 0.026457 0.997024 -0.072412
vn 0.018139 0.998760 -0.046357
vn -0.032492 0.998993 -0.030931
vn -0.188290 0.981717 -0.027922
vn -0.188194 0.981671 -0.030082
vn -0.097087 0.994836 -0.029583
vn 0.131131 0.972929 -0.190302
vn 0.102287 0.974892 -0.197795
vn 0.160520 0.973802 -0.161066
vn 0.119764 0.987218 -0.105151
vn 0.045307 0.997849 -0.047381
vn 0.007122 0.999744 -0.021462
vn 0.007351 0.999820 -0.017481
vn -0.018614 0.999177 -0.036030
vn -0.136842 0.985174 -0.103475
vn -0.163841 0.971270 -0.172602
vn -0.106196 0.975106 -0.194654
vn 0.104547 0.983227 -0.149450
vn 0.091594 0.981182 -0.169976
vn 0.107035 0.989596 -0.096144
vn 0.062142 0.997281 -0.039601
vn 0.016809 0.999796 -0.011168
vn 0.005532 0.999960 -0.006999
vn 0.005651 0.999954 -0.007691
vn 0.022106 0.999359 -0.028161
vn -0.030407 0.993673 -0.108116
vn -0.086323 0.972161 -0.217832
vn -0.075317 0.959963 -0.269813
vn 0.066505 0.994456 -0.081457
vn 0.067691 0.992688 -0.099941
vn 0.056558 0.997353 -0.045707
vn 0.029607 0.999377 -0.019234
vn 0.009300 0.999928 -0.007583
vn 0.006161 0.999969 -0.004872
vn 0.013963 0.999817 -0.013120
vn 0.057297 0.997701 -0.036197
vn 0.047166 0.996508 -0.068900
vn -0.008205 0.993751 -0.111321
vn -0.018756 0.990599 -0.135508
vn 0.010419 0.991628 -0.128705
vn 0.016753 0.986164 -0.164922
vn 0.010880 0.997922 -0.063507
vn 0.010220 0.999635 -0.025002
vn 0.007605 0.999850 -0.015574
vn 0.015630 0.999538 -0.026056
vn 0.037784 0.997979 -0.051083
vn 0.071565 0.995247 -0.066050
vn 0.054303 0.997014 -0.054902
vn 0.014123 0.999032 -0.041653
vn 0.005875 0.999211 -0.039280
vn -0.046795 0.988726 -0.142235
vn -0.024435 0.986633 -0.161114
vn -0.051435 0.994714 -0.088874
vn -0.018386 0.999162 -0.036574
vn 0.011773 0.999698 -0.021576
vn 0.035329 0.998764 -0.034968
vn 0.060209 0.996835 -0.051912
vn 0.063665 0.996655 -0.051246
vn 0.031439 0.999003 -0.031699
vn 0.007168 0.999860 -0.015119
vn 0.002667 0.999941 -0.010531
vn -0.054545 0.996657 -0.060832
vn -0.019022 0.998638 -0.048589
vn -0.099607 0.993265 -0.059189
vn -0.056775 0.998063 -0.025430
vn 0.016909 0.999831 -0.007152
vn 0.047799 0.998793 -0.011334
vn 0.068190 0.997564 -0.014733
vn 0.053660 0.998472 -0.013186
vn 0.015436 0.999858 -0.006756
vn 0.000905 0.999999 -0.001070
vn -0.000407 1.000000 0.000605
vn -0.042291 0.998944 -0.017936
vn -0.005713 0.999967 -0.005717
vn -0.113322 0.993215 -0.026117
vn -0.076598 0.997033 -0.007676
vn 0.018559 0.999814 0.005192
vn 0.050329 0.998732 -0.001097
vn 0.069073 0.997593 -0.006157
vn 0.051238 0.998675 -0.004771
vn 0.011426 0.999934 -0.001369
vn -0.000770 1.000000 0.000447
vn -0.000805 0.999999 0.000801
s 1
g pPlane1
usemtl blinn1SG
f 1/1/1 2/2/2 13/13/3 12/12/4
f 2/2/2 3/3/5 14/14/6 13/13/3
f 3/3/5 4/4/7 15/15/8 14/14/6
f 4/4/7 5/5/9 16/16/10 15/15/8
f 5/5/9 6/6/11 17/17/12 16/16/10
f 6/6/11 7/7/13 18/18/14 17/17/12
f 7/7/13 8/8/15 19/19/16 18/18/14
f 8/8/15 9/9/17 20/20/18 19/19/16
f 9/9/17 10/10/19 21/21/20 20/20/18
f 10/10/19 11/11/21 22/22/22 21/21/20
f 12/12/4 13/13/3 24/24/23 23/23/24
f 13/13/3 14/14/6 25/25/25 24/24/23
f 14/14/6 15/15/8 26/26/26 25/25/25
f 15/15/8 16/16/10 27/27/27 26/26/26
f 16/16/10 17/17/12 28/28/28 27/27/27
f 17/17/12 18/18/14 29/29/29 28/28/28
f 18/18/14 19/19/16 30/30/30 29/29/29
f 19/19/16 20/20/18 31/31/31 30/30/30
f 20/20/18 21/21/20 32/32/32 31/31/31
f 21/21/20 22/22/22 33/33/33 32/32/32
f 23/23/24 24/24/23 35/35/34 34/34/35
f 24/24/23 25/25/25 36/36/36 35/35/34
f 25/25/25 26/26/26 37/37/37 36/36/36
f 26/26/26 27/27/27 38/38/38 37/37/37
f 27/27/27 28/28/28 39/39/39 38/38/38
f 28/28/28 29/29/29 40/40/40 39/39/39
f 29/29/29 30/30/30 41/41/41 40/40/40
f 30/30/30 31/31/31 42/42/42 41/41/41
f 31/31/31 32/32/32 43/43/43 42/42/42
f 32/32/32 33/33/33 44/44/44 43/43/43
f 34/34/35 35/35/34 46/46/45 45/45/46
f 35/35/34 36/36/36 47/47/47 46/46/45
f 36/36/36 37/37/37 48/48/48 47/47/47
f 37/37/37 38/38/38 49/49/49 48/48/48
f 38/38/38 39/39/39 50/50/50 49/49/49
f 39/39/39 40/40/40 51/51/51 50/50/50
f 40/40/40 41/41/41 52/52/52 51/51/51
f 41/41/41 42/42/42 53/53/53 52/52/52
f 42/42/42 43/43/43 54/54/54 53/53/53
f 43/43/43 44/44/44 55/55/55 54/54/54
f 45/45/46 46/46/45 57/57/56 56/56/57
f 46/46/45 47/47/47 58/58/58 57/57/56
f 47/47/47 48/48/48 59/59/59 58/58/58
f 48/48/48 49/49/49 60/60/60 59/59/59
f 49/49/49 50/50/50 61/61/61 60/60/60
f 50/50/50 51/51/51 62/62/62 61/61/61
f 51/51/51 52/52/52 63/63/63 62/62/62
f 52/52/52 53/53/53 64/64/64 63/63/63
f 53/53/53 54/54/54 65/65/65 64/64/64
f 54/54/54 55/55/55 66/66/66 65/65/65
f 56/56/57 57/57/56 68/68/67 67/67/68
f 57/57/56 58/58/58 69/69/69 68/68/67
f 58/58/58 59/59/59 70/70/70 69/69/69
f 59/59/59 60/60/60 71/71/71 70/70/70
f 60/60/60 61/61/61 72/72/72 71/71/71
f 61/61/61 62/62/62 73/73/73 72/72/72
f 62/62/62 63/63/63 74/74/74 73/73/73
f 63/63/63 64/64/64 75/75/75 74/74/74
f 64/64/64 65/65/65 76/76/76 75/75/75
f 65/65/65 66/66/66 77/77/77 76/76/76
f 67/67/68 68/68/67 79/79/78 78/78/79
f 68/68/67 69/69/69 80/80/80 79/79/78
f 69/69/69 70/70/70 81/81/81 80/80/80
f 70/70/70 71/71/71 82/82/82 81/81/81
f 71/71/71 72/72/72 83/83/83 82/82/82
f 72/72/72 73/73/73 84/84/84 83/83/83
f 73/73/73 74/74/74 85/85/85 84/84/84
f 74/74/74 75/75/75 86/86/86 85/85/85
f 75/75/75 76/76/76 87/87/87 86/86/86
f 76/76/76 77/77/77 88/88/88 87/87/87
f 78/78/79 79/79/78 90/90/89 89/89/90
f 79/79/78 80/80/80 91/91/91 90/90/89
f 80/80/80 81/81/81 92/92/92 91/91/91
f 81/81/81 82/82/82 93/93/93 92/92/92
f 82/82/82 83/83/83 94/94/94 93/93/93
f 83/83/83 84/84/84 95/95/95 94/94/94
f 84/84/84 85/85/85 96/96/96 95/95/95
f 85/85/85 86/86/86 97/97/97 96/96/96
f 86/86/86 87/87/87 98/98/98 97/97/97
f 87/87/87 88/88/88 99/99/99 98/98/98
f 89/89/90 90/90/89 101/101/100 100/100/101
f 90/90/89 91/91/91 102/102/102 101/101/100
f 91/91/91 92/92/92 103/103/103 102/102/102
f 92/92/92 93/93/93 104/104/104 103/103/103
f 93/93/93 94/94/94 105/105/105 104/104/104
f 94/94/94 95/95/95 106/106/106 105/105/105
f 95/95/95 96/96/96 107/107/107 106/106/106
f 96/96/96 97/97/97 108/108/108 107/107/107
f 97/97/97 98/98/98 109/109/109 108/108/108
f 98/98/98 99/99/99 110/110/110 109/109/109
f 100/100/101 101/101/100 112/112/111 111/111/112
f 101/101/100 102/102/102 113/113/113 112/112/111
f 102/102/102 103/103/103 114/114/114 113/113/113
f 103/103/103 104/104/104 115/115/115 114/114/114
f 104/104/104 105/105/105 116/116/116 115/115/115
f 105/105/105 106/106/106 117/117/117 116/116/116
f 106/106/106 107/107/107 118/118/118 117/117/117
f 107/107/107 108/108/108 119/119/119 118/118/118
f 108/108/108 109/109/109 120/120/120 119/119/119
f 109/109/109 110/110/110 121/121/121 120/120/120
